<?xml version="1.0" standalone="no"?>
<!DOCTYPE svg PUBLIC "-//W3C//DTD SVG 20010904//EN"
 "http://www.w3.org/TR/2001/REC-SVG-20010904/DTD/svg10.dtd">
<svg version="1.0" xmlns="http://www.w3.org/2000/svg"
 width="1472.000000pt" height="832.000000pt" viewBox="0 0 1472.000000 832.000000"
 preserveAspectRatio="xMidYMid meet">

<g transform="translate(0.000000,832.000000) scale(0.100000,-0.100000)"
fill="#000000" stroke="none">
<path d="M4613 6203 l-273 -3 0 -1785 0 -1785 335 0 335 0 0 713 0 712 240
240 239 239 23 -29 c96 -122 514 -674 1004 -1324 l411 -546 328 -3 c264 -2
326 0 322 11 -8 21 -195 277 -498 682 -409 545 -619 835 -1021 1409 -117 168
-125 182 -110 197 253 237 422 397 522 493 162 157 621 590 730 690 47 43 87
82 89 87 2 6 -14 8 -40 5 -24 -2 -191 -5 -370 -5 l-326 -1 -139 -142 c-77 -79
-204 -210 -284 -293 -80 -82 -213 -220 -296 -305 -83 -85 -222 -229 -310 -320
-87 -91 -239 -246 -336 -345 l-178 -180 0 795 1 795 -63 0 c-35 1 -186 -1
-335 -2z"/>
<path d="M8939 6203 l-1335 -3 -3 -1785 -2 -1785 1053 0 1053 0 305 305 305
305 -1013 0 -1012 0 0 418 0 417 487 -3 c269 -2 602 0 741 4 l252 6 -2 317 -3
316 -737 3 -738 2 0 440 0 440 288 1 c158 1 491 3 740 5 l453 3 87 80 c79 72
215 209 437 439 l80 82 -50 -2 c-28 -2 -651 -4 -1386 -5z"/>
</g>
</svg>
